<mxfile host="app.diagrams.net" modified="2023-03-24T07:02:37.992Z" agent="Mozilla/5.0 (Macintosh; Intel Mac OS X 10_15_7) AppleWebKit/537.36 (KHTML, like Gecko) Chrome/107.0.0.0 Safari/537.36" version="21.1.0" etag="oxb5d9G2ujTfPgs7T3jB" type="github">
  <diagram name="第 1 页" id="fkOiBJZQmoci1Vkh81EM">
    <mxGraphModel>
      <root>
        <mxCell id="0" />
        <mxCell id="1" parent="0" />
      </root>
    </mxGraphModel>
  </diagram>
</mxfile>
